<svg width="41" height="41" viewBox="0 0 41 41" fill="none" xmlns="http://www.w3.org/2000/svg">
<rect width="41" height="41" rx="20.5" fill="black"/>
<path d="M15.9271 25.125V16.1186C15.9271 14.8151 16.417 13.6814 17.3966 12.7176C18.313 11.8248 19.4625 11.3785 20.8451 11.3785H22.4449V11.497L21.4969 13.4878H20.8451C20.1341 13.4878 19.5297 13.7011 19.032 14.1278C18.5421 14.5465 18.2972 15.2101 18.2972 16.1186C18.2972 16.1186 18.2972 18.7653 18.2972 24.0585L16.0456 25.125H15.9271Z" fill="white"/>
<path d="M20.1913 15.8337V24.8401C20.1913 26.1436 20.6811 27.2773 21.6608 28.2412C22.5772 29.1339 23.7267 29.5803 25.1092 29.5803H26.7091V29.4618L25.761 27.4709H25.1092C24.3982 27.4709 23.7938 27.2576 23.2961 26.831C22.8063 26.4123 22.5614 25.7486 22.5614 24.8401C22.5614 24.8401 22.5614 22.1935 22.5614 16.9003L20.3098 15.8337H20.1913Z" fill="white"/>
</svg>
